<svg id="Layer_1" data-name="Layer 1" xmlns="http://www.w3.org/2000/svg" width="200" height="200" viewBox="0 0 200 200"><defs><style>.cls-1,.cls-2{fill:#d8e2ae;}.cls-2,.cls-3{stroke:#fff;stroke-miterlimit:10;stroke-width:3px;}.cls-3{fill:none;}.cls-4{fill:#fff;}</style></defs><circle class="cls-1" cx="100" cy="97" r="70"/><polygon class="cls-2" points="72.5 49.5 113.08 49.5 130.83 66.33 130.83 136.15 126.35 131.39 121.86 137 117.37 131.39 112.23 137 108.4 130.27 104.16 137 99.42 131.39 96.29 137 90.45 131.39 86.73 137 81.47 132.51 78.87 137 75.86 132.51 72.5 137 72.5 49.5"/><path class="cls-2" d="M112.65,50.57a.4.4,0,0,1,.68-.28l7.55,7.38L129,65.61a.07.07,0,0,1-.05.11l-8.07.19-8.24.19V50.57Z"/><line class="cls-3" x1="79.23" y1="75.3" x2="122.42" y2="75.3"/><line class="cls-3" x1="79.64" y1="87" x2="122.83" y2="87"/><line class="cls-3" x1="80.04" y1="99.09" x2="123.23" y2="99.09"/><path class="cls-4" d="M82.67,111.14v3.49l4-4.13a3.48,3.48,0,0,1,.49-.44.92.92,0,0,1,.53-.14,1,1,0,0,1,.7.25.83.83,0,0,1,.27.63,1.22,1.22,0,0,1-.46.87L85.71,114,88.54,118a5.06,5.06,0,0,1,.45.74,1.4,1.4,0,0,1,.15.61.76.76,0,0,1-.27.58,1,1,0,0,1-.71.24,1.19,1.19,0,0,1-.68-.18,1.48,1.48,0,0,1-.45-.48L86.7,119l-2.38-3.67-1.65,1.59v2a1.31,1.31,0,0,1-.28.93,1,1,0,0,1-1.23.17.94.94,0,0,1-.37-.37,1.19,1.19,0,0,1-.11-.44,6.65,6.65,0,0,1,0-.73v-7.4a1.32,1.32,0,0,1,.27-.91.9.9,0,0,1,.73-.31,1,1,0,0,1,.74.3A1.3,1.3,0,0,1,82.67,111.14Z"/><path class="cls-4" d="M93.64,115.79h-.7V119a1.32,1.32,0,0,1-.28.94,1,1,0,0,1-.73.29.9.9,0,0,1-.74-.31,1.37,1.37,0,0,1-.27-.92v-7.65a1.06,1.06,0,0,1,1.24-1.24h3.28a9.58,9.58,0,0,1,1.16.06,2.93,2.93,0,0,1,.87.23,2.46,2.46,0,0,1,.83.57,2.29,2.29,0,0,1,.54.85,2.7,2.7,0,0,1,.19,1,2.5,2.5,0,0,1-.63,1.78,3.66,3.66,0,0,1-1.9.94,3.7,3.7,0,0,1,1,.84,7.72,7.72,0,0,1,.87,1.19,7.44,7.44,0,0,1,.6,1.13,2.4,2.4,0,0,1,.22.7.75.75,0,0,1-.13.39.9.9,0,0,1-.34.3,1.06,1.06,0,0,1-.51.11,1,1,0,0,1-.57-.16,1.49,1.49,0,0,1-.39-.4q-.17-.24-.45-.72L96,117.59a7.13,7.13,0,0,0-.78-1.13,1.83,1.83,0,0,0-.7-.53A2.28,2.28,0,0,0,93.64,115.79Zm1.16-4.19H92.94v2.74h1.8a4.78,4.78,0,0,0,1.23-.13,1.37,1.37,0,0,0,.75-.42A1.22,1.22,0,0,0,97,113a1.26,1.26,0,0,0-.22-.74,1.29,1.29,0,0,0-.58-.47A4.16,4.16,0,0,0,94.8,111.6Z"/><path class="cls-4" d="M102,120.21a1.06,1.06,0,0,1-.73-.27,1,1,0,0,1,0-1.47,1,1,0,0,1,.72-.3,1.05,1.05,0,0,1,.73.29,1,1,0,0,1,.3.72,1,1,0,0,1-.3.76A1.05,1.05,0,0,1,102,120.21Z"/></svg>