<svg xmlns="http://www.w3.org/2000/svg" width="200" height="200" viewBox="0 0 200 200"><defs><style>.cls-1{fill:#f4acac;}.cls-2{fill:#fff;}</style></defs><g id="Layer_4" data-name="Layer 4"><circle class="cls-1" cx="106" cy="100" r="70"/><path class="cls-1" d="M53.71,116.94v-8.48c6.46-6.61,14.53-10.25,22.78-10.25s16.33,3.64,22.79,10.25v8.48Z"/><path class="cls-2" d="M76.49,99.71c7.67,0,15.19,3.32,21.29,9.37v6.36H55.21v-6.36c6.1-6,13.61-9.37,21.28-9.37m0-3c-8.62,0-17.24,3.72-24.28,11.15v10.58h48.57V107.86c-7-7.43-15.66-11.15-24.29-11.15Z"/><path class="cls-1" d="M76.71,94.29A11.45,11.45,0,1,1,88.15,82.85,11.45,11.45,0,0,1,76.71,94.29Z"/><path class="cls-2" d="M76.71,72.9a9.95,9.95,0,1,1-9.94,9.95,10,10,0,0,1,9.94-9.95m0-3A12.95,12.95,0,1,0,89.65,82.85,12.94,12.94,0,0,0,76.71,69.9Z"/><path class="cls-1" d="M112.35,118.94v-8.48c6.46-6.61,14.53-10.25,22.78-10.25s16.33,3.64,22.79,10.25v8.48Z"/><path class="cls-2" d="M135.13,101.71c7.67,0,15.19,3.32,21.29,9.37v6.36H113.85v-6.36c6.1-6,13.61-9.37,21.28-9.37m0-3c-8.62,0-17.24,3.72-24.28,11.15v10.58h48.57V109.86c-7-7.43-15.67-11.15-24.29-11.15Z"/><path class="cls-1" d="M135.35,96.29a11.45,11.45,0,1,1,11.44-11.44A11.45,11.45,0,0,1,135.35,96.29Z"/><path class="cls-2" d="M135.35,74.9a9.95,9.95,0,1,1-9.94,9.95,10,10,0,0,1,9.94-9.95m0-3a12.95,12.95,0,1,0,12.94,12.95A12.94,12.94,0,0,0,135.35,71.9Z"/><path class="cls-1" d="M83.41,127.5V119c6.46-6.61,14.53-10.25,22.78-10.25S122.52,112.41,129,119v8.48Z"/><path class="cls-2" d="M106.19,110.27c7.67,0,15.19,3.32,21.29,9.37V126H84.91v-6.36c6.1-6,13.61-9.37,21.28-9.37m0-3c-8.62,0-17.24,3.72-24.28,11.15V129h48.57V118.42c-7-7.43-15.66-11.15-24.29-11.15Z"/><path class="cls-1" d="M106.41,104.85a11.45,11.45,0,1,1,11.44-11.44A11.45,11.45,0,0,1,106.41,104.85Z"/><path class="cls-2" d="M106.41,83.46a9.95,9.95,0,1,1-9.94,10,10,10,0,0,1,9.94-10m0-3a12.95,12.95,0,1,0,12.94,13,12.94,12.94,0,0,0-12.94-13Z"/></g></svg>