<svg xmlns="http://www.w3.org/2000/svg" width="200" height="200" viewBox="0 0 200 200"><defs><style>.cls-1{fill:#f7d67f;}.cls-2,.cls-3{fill:none;stroke:#fff;stroke-miterlimit:10;}.cls-2{stroke-width:3px;}.cls-3{stroke-width:2px;}</style></defs><g id="Layer_3" data-name="Layer 3"><circle class="cls-1" cx="105" cy="103" r="70"/><path class="cls-2" d="M96.55,78.44,90.18,90.09a50.33,50.33,0,0,0-5.34,15l-6.42,20.32,25.67,12.83L118,119a42.84,42.84,0,0,0,7.49-12.83l4.22-12.7a.17.17,0,0,0-.08-.2L96.72,78.38A.13.13,0,0,0,96.55,78.44Z"/><line class="cls-2" x1="129.75" y1="74.05" x2="129.75" y2="93.3"/><line class="cls-2" x1="112.64" y1="66.56" x2="96.6" y2="78.32"/><path class="cls-3" d="M117.81,96.73c-4.37,14.3-14,27-19.68,31.38"/><path class="cls-2" d="M72,75.12c5.92-9.86,8.56-12.84,20.84-14.1"/><path class="cls-3" d="M86.34,73.18c3.47-5.78,5-7.53,12.23-8.27"/><path class="cls-2" d="M120.3,141.48c-8.16,8.1-11.45,10.34-23.66,8.54"/><rect class="cls-3" x="113.58" y="58.5" width="19.7" height="13.54" transform="translate(37.52 -44.8) rotate(24.16)"/></g></svg>