<svg id="Layer_1" data-name="Layer 1" xmlns="http://www.w3.org/2000/svg" viewBox="0 0 595.28 558.39"><defs><style>.cls-1{fill:#95b8a3;}</style></defs><path class="cls-1" d="M312.46,512.42c-6.53-8.21-190.21-45.84-201.4-59.14-6.09-7.23,45.77,1,117.25-3.39,33.77-2.08,80.55-7.51,74.21-12.25C295.08,432,199.3,417.9,126.31,427.5,83,433.2,60.8,445.54,0,438.22v72.7c26.7,14.68,47.6,35.88,55.49,37C67.6,549.6,19,499.79,39.41,500.32c22,.56,106.31,58.7,124.73,58.06,6-.2,3.76-6.58-1.91-11.91-12.79-12-45.35-20.67-51-28.84-2.76-4,3-5.15,3.61-5.24,12.66-2.24,50,14.75,50.59,13.59S131,510.93,101.58,493.35c-33-19.7-59.91-43.3-52-45.52,7-2,37.39,13.81,73.17,27.79C225.53,515.77,317.44,518.68,312.46,512.42Z" transform="translate(0 0)"/><path class="cls-1" d="M541.68,0C482.86,29.07,451,26.34,402.12,36.5,323.26,52.91,240,94.7,236.83,101.43c-2.64,5.64,47.38-5.44,82.08-14.84C392.38,66.7,437,43.64,436.54,51.08c-.91,13.69-152.66,101.77-152.84,110.1-.14,6.34,87.85-25.7,158.28-89.42,24.52-22.17,42.4-44,50.75-44.73,9.45-.89.89,25.69-16.52,51.28-15.55,22.84-39.37,44.66-37.91,45.35S463.47,99.43,477.65,97c.62-.07,7.15-1.16,7.47,2.82.65,8-24.7,25.16-28.2,38.35-1.56,5.89,1.12,11.41,7.15,9.63,18.55-5.51,57.29-76.84,78.42-84.39,19.67-7,9.64,46.41,20.26,41.2,7.76-3.83,12.43-32.12,32.53-53.11V0Z" transform="translate(0 0)"/></svg>