<svg id="Layer_1" data-name="Layer 1" xmlns="http://www.w3.org/2000/svg" width="897" height="834" viewBox="0 0 897 834"><defs><style>.cls-1{fill:#94b7a2;}</style></defs><path id="Path_17" data-name="Path 17" class="cls-1" d="M813.45,471.48c-3.62,3.44-41.45-11.51-79.89-7.28-62.93,6.92-110.42,63.56-123.72,78.26-128,141.48-563,237.62-559.69,242.8C52.49,788.9,261,731.2,463.22,620.87,565.6,565,624.55,518.53,618.23,478.74c-1.59-10-6.89-16.84-14.52-26.61-32.82-42.05-88-51.43-144.36-75.64C372.12,339,326.22,285,334.23,280c6.72-4.26,60.78,19.9,95.08,37.67,72.59,37.61,95.93,66.95,109.26,62.38,24.54-8.4-36.47-113.84-21-118.82,11.8-3.8,83.18,46.1,68.3,108.52-5.18,21.73-19.58,40.9-8.55,44.3,12.49,3.86,49.94-14.85,72.22-36.1C669.44,359,675,337.67,678.49,337.78S670.4,361,687,367.4c.74.29,8.53,3.21,16.55,1,16.13-4.5,10.56-23.56,30.27-32.58,8.8-4,23.26-6.34,28.92-3.16,17.43,9.78-59.4,65.54-42,77.44,16.2,11.08,102.26-24,108.31-17.19,5,5.62-54.84,28.23-53.34,50.26,1.19,17.57,40.75,25.5,37.75,28.34"/></svg>