<svg id="Layer_1" data-name="Layer 1" xmlns="http://www.w3.org/2000/svg" width="847" height="787" viewBox="0 0 847 787"><defs><style>.cls-1{fill:#94b7a2;}</style></defs><path id="Path_20" data-name="Path 20" class="cls-1" d="M567.63,281.52c4.2,3.53-38.54,1.49-48.86,14.27-16.91,20.93,58,76.07,77,90.62C778.61,526.49,744.09,708.13,754.44,711.26c7.28,2.2,4-93.73-91.85-228.41C614.08,414.68,561.67,364.44,491,335.56c-17.86-7.29-31.86-11.17-52-16.76-86.68-24-127.83-17.5-194.83-22-103.68-7-216.69-36.93-221.69-42.81-4.2-4.93,61.65.13,107.59,5.21,97.25,10.76,157.93,27.42,156.23,20.61-3.14-12.53-210.76-78.07-212.19-85.73-1.09-5.83,116.56,14.63,216.2,66.1,34.69,17.91,60.8,36.16,71.64,36,12.27-.15-2.55-23.77-28.6-45.56-23.26-19.45-57-37.11-55.22-37.9s35.82,19.74,54.39,20.56c.81,0,9.35.33,9.19-3.37-.31-7.45-35.35-20.65-41.74-32.45-2.85-5.27-.2-10.63,7.8-9.61,24.63,3.16,84.66,64.92,112.89,69.7,26.28,4.46,5.71-43.77,20.1-40.06,11.87,3.07,23.13,35.23,61.38,51.73,30.5,13.15,62.06,9.38,65.54,12.31"/></svg>