<svg id="Layer_1" data-name="Layer 1" xmlns="http://www.w3.org/2000/svg" viewBox="0 0 166.21 201.42"><defs><style>.cls-1{fill:#fff;}.cls-2{fill:#f38420;}.cls-2,.cls-3{stroke:#f38420;stroke-miterlimit:10;}.cls-3{fill:none;}</style></defs><path class="cls-1" d="M187.93,200.64" transform="translate(-17.63 -11)"/><path class="cls-2" d="M182.52,33.82H52.17l16,16.8q12.86.45,35.52,2.27A138.19,138.19,0,0,0,138,51.53c7.48-1.3,16.53-3.62,18.25-1.94.82.79-.31,2.21-1.41,3.3L129.27,75.31,103.74,97.73,78.22,75.31,52.69,52.89l-1.24-1a.39.39,0,0,1,0-.28q.47-1.37,12.31-1.15L47.81,33.82H19L59.85,69.74l36.67,32.2v110h7.73q.33-55,.65-109.93l36.73-32.25Z" transform="translate(-17.63 -11)"/><path class="cls-3" d="M85,70.33l-7.13-4.81-45-47-3.78-5.76,6.94,4.51L81,64.27Z" transform="translate(-17.63 -11)"/></svg>