<svg id="Layer_1" data-name="Layer 1" xmlns="http://www.w3.org/2000/svg" viewBox="0 0 351.67 321.88"><defs><style>.cls-1,.cls-3,.cls-4{fill:#fff;}.cls-2{fill:#f38420;}.cls-3,.cls-4{stroke:#fff;stroke-miterlimit:10;}.cls-3{stroke-width:13px;}.cls-4{stroke-width:4px;}</style></defs><path class="cls-1" d="M317.76,270.62" transform="translate(-41.24 -66.69)"/><rect class="cls-2" width="351.67" height="321.88" rx="28.98"/><path class="cls-3" d="M317.23,119.16c1.21-1.17.24-3-1.58-3h-99.8l-63.8.16c1.46-.11,3.32-.07,4.07.83.58.69,0,1.65.2,1.9l17.39,20a2.24,2.24,0,0,0,1.58.72q16.29.67,44.41,3.15A161,161,0,0,0,263.42,141c9.55-1.82,21.11-5.08,23.31-2.72,1,1.1-.35,3.06-1.75,4.58l-.1.1-32.57,31.4-31,29.93a2.35,2.35,0,0,1-3.15,0l-31-29.93L154.5,142.93l-.08-.07-1.54-1.33a.66.66,0,0,1,0-.39c.5-2,10.68-1.86,17.12-1.6-1.32-.92-2.63-1.9-3.95-2.94a71.14,71.14,0,0,1-17.17-19.73,2.26,2.26,0,0,0-1.69-.72H116.06c-1.82,0-2.79,1.84-1.58,3l49.13,47.36,46.32,44.65a1.68,1.68,0,0,1,.53,1.2V364.13a2,2,0,0,0,2.11,1.81h5.68a2,2,0,0,0,2.11-1.8l.81-151.7a1.66,1.66,0,0,1,.53-1.19l46.4-44.73Z" transform="translate(-41.24 -66.69)"/><path class="cls-4" d="M201,165.65,200,165a3,3,0,0,1-.39-.31L124.37,92.88a3.47,3.47,0,0,1-.25-.29l-.07-.09c-1.51-1.94.64-4.09,2.76-2.76l.93.57a2.79,2.79,0,0,1,.43.34l75.23,71.83a3.58,3.58,0,0,1,.26.29l.11.15C205.29,164.88,203.09,167,201,165.65Z" transform="translate(-41.24 -66.69)"/></svg>