<svg id="Layer_1" data-name="Layer 1" xmlns="http://www.w3.org/2000/svg" viewBox="0 0 62.05 62.05"><defs><style>.cls-1{fill:none;stroke:#707071;stroke-width:0.2px;}.cls-2{fill:#6263ac;}.cls-3{fill:#fff;}</style></defs><path id="Path_9" data-name="Path 9" class="cls-1" d="M54.24,111" transform="translate(-23.22 -28.76)"/><g id="Ellipse_5" data-name="Ellipse 5"><circle class="cls-2" cx="31.02" cy="31.02" r="31.02"/><circle class="cls-1" cx="31.02" cy="31.02" r="30.92"/></g><path id="Icon_awesome-instagram" data-name="Icon awesome-instagram" class="cls-3" d="M53.8,49.75a10,10,0,1,0,10,10,10,10,0,0,0-10-10Zm0,16.57a6.53,6.53,0,1,1,6.52-6.53A6.53,6.53,0,0,1,53.8,66.32Zm12.79-17A2.34,2.34,0,1,1,64.25,47h0a2.33,2.33,0,0,1,2.34,2.33Zm6.65,2.38c-.15-3.14-.87-5.92-3.16-8.2s-5.07-3-8.2-3.17-12.93-.18-16.16,0-5.91.87-8.2,3.16-3,5.06-3.17,8.2-.19,12.92,0,16.15.86,5.92,3.16,8.2,5.07,3,8.2,3.17,12.92.18,16.16,0,5.91-.87,8.2-3.17,3-5.07,3.16-8.2.18-12.91,0-16.14ZM69.06,71.33a6.61,6.61,0,0,1-3.72,3.72c-2.58,1-8.69.79-11.54.79s-9,.23-11.54-.79a6.62,6.62,0,0,1-3.73-3.72c-1-2.58-.78-8.69-.78-11.54s-.23-9,.78-11.54a6.64,6.64,0,0,1,3.73-3.73c2.57-1,8.69-.78,11.54-.78s9-.23,11.54.78a6.62,6.62,0,0,1,3.72,3.73c1,2.57.79,8.69.79,11.54S70.08,68.76,69.06,71.33Z" transform="translate(-23.22 -28.76)"/></svg>