<svg id="Layer_1" data-name="Layer 1" xmlns="http://www.w3.org/2000/svg" viewBox="0 0 568.92 352.06"><defs><style>.cls-1{fill:#fff;}.cls-2{fill:#6363ac;}.cls-3,.cls-4,.cls-5,.cls-6{fill:none;stroke-miterlimit:10;}.cls-3,.cls-6{stroke:#6363ac;}.cls-4,.cls-5{stroke:#948db3;}.cls-5{stroke-width:4px;}.cls-6{stroke-width:10px;}</style></defs><path class="cls-1" d="M361,329.91" transform="translate(-20.94 -19.08)"/><path class="cls-2" d="M402.48,90.66H247.33l19.1,25.56q15.3.69,42.28,3.46c18,1.73,31.49,0,40.73-2.08,8.9-2,19.67-5.5,21.72-2.95,1,1.21-.36,3.37-1.68,5L339.1,153.81l-30.39,34.13-30.38-34.13-30.39-34.13-1.47-1.48a.67.67,0,0,1,0-.42q.56-2.07,14.65-1.75l-19-25.37H207.79l48.67,54.66,43.65,49V361.75h9.21q.39-83.67.77-167.33l43.72-49.1Z" transform="translate(-20.94 -19.08)"/><path class="cls-3" d="M286.37,146.22l-8.47-7.32L224.37,67.28l-4.5-8.76,8.27,6.86L281.67,137Z" transform="translate(-20.94 -19.08)"/><path class="cls-2" d="M26.4,264.49a24.45,24.45,0,0,1-3.84-2.43,3.51,3.51,0,0,1-1.62-2.71c0-1.85.87-2.77,2.61-2.77a6.23,6.23,0,0,1,3.81,1.73,24.91,24.91,0,0,0,4.7,3,35,35,0,0,0,5.65,2.22,41.75,41.75,0,0,0,19.85,1.27,18,18,0,0,0,4.86-1.73q4.18-2.37,4.19-6.06,0-3.41-3.62-6.87a84.15,84.15,0,0,0-8.64-7l-10.86-7.74Q27.17,224,24.25,214.47a24.69,24.69,0,0,1-1-7.33,17.42,17.42,0,0,1,2-8,19.8,19.8,0,0,1,5.94-6.88q8.44-6.4,23-6.41a41.88,41.88,0,0,1,13.34,2,33.44,33.44,0,0,1,8.06,3.56c1.44,1,2.16,2,2.16,2.83,0,1.77-.8,2.65-2.41,2.65a4.9,4.9,0,0,1-3-1.27,18.94,18.94,0,0,0-3.52-2.22,28.62,28.62,0,0,0-4.41-1.7,36,36,0,0,0-10.48-1.62q-9.46,0-9.47,5.66a6.63,6.63,0,0,0,1.72,4.39q3,3.53,11.91,10.08t14.22,11.46a58.16,58.16,0,0,1,8.16,8.84,21.67,21.67,0,0,1,4.45,12.85,23.13,23.13,0,0,1-2.57,11.32,24.45,24.45,0,0,1-7.21,8q-9.78,7.05-24.26,7T26.4,264.49Z" transform="translate(-20.94 -19.08)"/><path class="cls-2" d="M100.9,186.92h32.4v81.73H100.9Z" transform="translate(-20.94 -19.08)"/><path class="cls-2" d="M196.68,244.68l5.66.23q12.32,0,20.32-7.39t8.51-19.29q.71-18.25-19.31-24.67-7.49-2.42-19.5-2.42H187v77.51H154.64V186.92H179q19.69,0,23.76.52c2.71.35,5.53.79,8.48,1.33a36.66,36.66,0,0,1,18.19,10,24.31,24.31,0,0,1,6.92,17.91q-.37,13.11-8.44,21.83t-22.61,10.86a58.59,58.59,0,0,1-6.61.52c-3.81,0-5.71-.95-5.71-2.83a2,2,0,0,1,1-1.71A5,5,0,0,1,196.68,244.68Z" transform="translate(-20.94 -19.08)"/><path class="cls-2" d="M436.13,187.89c0,1.78-2.06,2.66-6.16,2.66H415.23v77.57H382.71V190.55h-9.52a36.64,36.64,0,0,0-6.73.41,22,22,0,0,1-3.5.46q-3.24,0-3.24-2.31,0-2.72,6.29-2.72h56.65a43.88,43.88,0,0,0,6.48-.34,27,27,0,0,1,3.81-.41Q436.13,185.64,436.13,187.89Z" transform="translate(-20.94 -19.08)"/><path class="cls-2" d="M448.51,186.39h32.4v81.73h-32.4Z" transform="translate(-20.94 -19.08)"/><path class="cls-2" d="M544.29,244.15l5.65.23q12.33,0,20.33-7.39t8.51-19.29q.71-18.25-19.31-24.66-7.49-2.43-19.5-2.43h-5.33v77.51H502.25V186.39h24.32q19.7,0,23.76.52t8.48,1.33a36.66,36.66,0,0,1,18.19,10,24.36,24.36,0,0,1,6.93,17.91q-.39,13.11-8.45,21.83t-22.61,10.86a58.59,58.59,0,0,1-6.61.52c-3.81,0-5.71-.95-5.71-2.83a2,2,0,0,1,1-1.71A5,5,0,0,1,544.29,244.15Z" transform="translate(-20.94 -19.08)"/><path class="cls-4" d="M31.83,262.62A25.19,25.19,0,0,1,28,260.2a3.53,3.53,0,0,1-1.62-2.72c0-1.85.87-2.77,2.6-2.77a6.25,6.25,0,0,1,3.81,1.73,24.26,24.26,0,0,0,4.7,3,36.06,36.06,0,0,0,5.66,2.23,40.23,40.23,0,0,0,11.62,1.9A40.86,40.86,0,0,0,63,263a17.75,17.75,0,0,0,4.86-1.73c2.8-1.58,4.19-3.6,4.19-6.07,0-2.27-1.2-4.56-3.62-6.87a86.35,86.35,0,0,0-8.63-7.05l-10.86-7.74q-16.33-11.43-19.25-20.9a24.76,24.76,0,0,1-1-7.34,17.34,17.34,0,0,1,2-8,19.75,19.75,0,0,1,5.93-6.87q8.46-6.42,23-6.41a41.49,41.49,0,0,1,13.33,2A33.64,33.64,0,0,1,81,189.56c1.44,1,2.16,2,2.16,2.83,0,1.77-.8,2.66-2.41,2.66a4.93,4.93,0,0,1-3-1.27,19.31,19.31,0,0,0-3.52-2.23,30.25,30.25,0,0,0-4.42-1.7,35.92,35.92,0,0,0-10.48-1.62q-9.46,0-9.46,5.66a6.67,6.67,0,0,0,1.71,4.39q3.06,3.53,11.91,10.08a182.18,182.18,0,0,1,14.23,11.46,58.64,58.64,0,0,1,8.16,8.84,21.74,21.74,0,0,1,4.45,12.85,23,23,0,0,1-2.58,11.32,24.31,24.31,0,0,1-7.2,8q-9.8,7.05-24.27,7.05T31.83,262.62Z" transform="translate(-20.94 -19.08)"/><path class="cls-4" d="M106.33,185.06h32.39v81.72H106.33Z" transform="translate(-20.94 -19.08)"/><path class="cls-4" d="M202.11,242.81l5.65.23q12.33,0,20.33-7.39t8.51-19.29q.69-18.26-19.31-24.66-7.5-2.43-19.5-2.43h-5.33v77.51h-32.4V185.06h24.33q19.68,0,23.75.52t8.48,1.32a33.55,33.55,0,0,1,9.53,3.53,33.17,33.17,0,0,1,8.67,6.47,24.35,24.35,0,0,1,6.92,17.9q-.37,13.11-8.45,21.83t-22.61,10.86a56,56,0,0,1-6.6.52q-5.72,0-5.72-2.83a2,2,0,0,1,1-1.7A4.88,4.88,0,0,1,202.11,242.81Z" transform="translate(-20.94 -19.08)"/><path class="cls-4" d="M441.56,186q0,2.66-6.17,2.66H420.66v77.56H388.14V188.69h-9.53a37,37,0,0,0-6.73.4,20.82,20.82,0,0,1-3.49.46q-3.24,0-3.24-2.31c0-1.81,2.09-2.71,6.29-2.71h56.65a43.74,43.74,0,0,0,6.48-.35,26.32,26.32,0,0,1,3.81-.4Q441.56,183.78,441.56,186Z" transform="translate(-20.94 -19.08)"/><path class="cls-4" d="M453.94,184.53h32.39v81.72H453.94Z" transform="translate(-20.94 -19.08)"/><path class="cls-4" d="M549.72,242.28l5.65.23q12.33,0,20.32-7.39,8.14-7.45,8.52-19.29.69-18.26-19.31-24.66-7.5-2.43-19.5-2.43h-5.34v77.51H507.67V184.53H532q19.68,0,23.75.52t8.48,1.32a36.76,36.76,0,0,1,18.2,10,24.35,24.35,0,0,1,6.92,17.9q-.37,13.11-8.45,21.83T558.29,247a56,56,0,0,1-6.6.52q-5.72,0-5.72-2.83a2,2,0,0,1,1-1.7A4.86,4.86,0,0,1,549.72,242.28Z" transform="translate(-20.94 -19.08)"/><path class="cls-5" d="M62.93,299.53v52.53H292" transform="translate(-20.94 -19.08)"/><path class="cls-5" d="M316.8,352.06H545.93V299.53" transform="translate(-20.94 -19.08)"/><path class="cls-5" d="M62.93,160.73v-122h483v122" transform="translate(-20.94 -19.08)"/><path class="cls-6" d="M49.53,160.24V27.51l511.2-3.39V160.24" transform="translate(-20.94 -19.08)"/><path class="cls-6" d="M49.53,299.53v66.62h511.2V299.53" transform="translate(-20.94 -19.08)"/></svg>