<svg id="Layer_1" data-name="Layer 1" xmlns="http://www.w3.org/2000/svg" viewBox="0 0 568.92 352.06"><defs><style>.cls-1{fill:#fff;}.cls-2{fill:#f38420;}.cls-3,.cls-4,.cls-5,.cls-6{fill:none;stroke-miterlimit:10;}.cls-3,.cls-6{stroke:#f38420;}.cls-4,.cls-5{stroke:#f2a972;}.cls-5{stroke-width:4px;}.cls-6{stroke-width:10px;}</style></defs><path class="cls-1" d="M353.1,335.66" transform="translate(-13.04 -24.83)"/><path class="cls-2" d="M394.58,96.4H239.43L258.53,122q15.3.69,42.29,3.47c18,1.73,31.48,0,40.72-2.08,8.9-2,19.67-5.51,21.72-3,1,1.22-.36,3.37-1.67,5L331.2,159.55l-30.38,34.13-30.39-34.13-30.38-34.12L238.57,124a.76.76,0,0,1,0-.42q.55-2.09,14.65-1.76l-19-25.37H199.89l48.67,54.66,43.65,49v167.4h9.21q.39-83.65.77-167.33l43.72-49.1Z" transform="translate(-13.04 -24.83)"/><path class="cls-3" d="M278.48,152,270,144.64,216.47,73q-2.25-4.36-4.49-8.75l8.26,6.85q26.76,35.82,53.53,71.62Z" transform="translate(-13.04 -24.83)"/><path class="cls-2" d="M18.51,270.23a24.83,24.83,0,0,1-3.85-2.42A3.54,3.54,0,0,1,13,265.09c0-1.85.87-2.77,2.61-2.77a6.29,6.29,0,0,1,3.81,1.73,24,24,0,0,0,4.7,3,35.93,35.93,0,0,0,5.65,2.23,40.28,40.28,0,0,0,11.62,1.9,41,41,0,0,0,8.23-.63,17.87,17.87,0,0,0,4.86-1.74q4.18-2.35,4.19-6.06,0-3.4-3.62-6.87a85.5,85.5,0,0,0-8.64-7l-10.86-7.74q-16.32-11.43-19.24-20.91a24.64,24.64,0,0,1-1-7.33,17.42,17.42,0,0,1,2-8A19.68,19.68,0,0,1,23.27,198q8.44-6.42,23-6.41a41.56,41.56,0,0,1,13.34,2,33.64,33.64,0,0,1,8.07,3.55c1.43,1,2.15,2,2.15,2.83,0,1.77-.8,2.66-2.41,2.66a4.91,4.91,0,0,1-3-1.27,19.4,19.4,0,0,0-3.53-2.23,29.68,29.68,0,0,0-4.41-1.7A36,36,0,0,0,46,195.84q-9.46,0-9.47,5.66a6.63,6.63,0,0,0,1.72,4.39q3,3.53,11.91,10.08a181.77,181.77,0,0,1,14.22,11.46,59.31,59.31,0,0,1,8.17,8.84A21.72,21.72,0,0,1,77,249.12a23.13,23.13,0,0,1-2.57,11.32,24.45,24.45,0,0,1-7.21,8q-9.78,7.05-24.26,7.05T18.51,270.23Z" transform="translate(-13.04 -24.83)"/><path class="cls-2" d="M93,192.67H125.4v81.72H93Z" transform="translate(-13.04 -24.83)"/><path class="cls-2" d="M188.78,250.42l5.66.23q12.31,0,20.32-7.39T223.27,224Q224,205.72,204,199.31q-7.49-2.43-19.49-2.43h-5.34v77.51H146.74V192.67h24.32q19.69,0,23.76.52c2.71.34,5.53.78,8.48,1.32a36.87,36.87,0,0,1,18.19,10,24.39,24.39,0,0,1,6.93,17.91Q228,235.52,220,244.24T197.36,255.1a56.3,56.3,0,0,1-6.61.52q-5.72,0-5.71-2.83a2,2,0,0,1,1-1.7A4.88,4.88,0,0,1,188.78,250.42Z" transform="translate(-13.04 -24.83)"/><path class="cls-2" d="M428.23,193.64q0,2.66-6.16,2.66H407.33v77.56H374.82V196.3h-9.53a36.91,36.91,0,0,0-6.73.4,20.91,20.91,0,0,1-3.5.46q-3.24,0-3.24-2.31,0-2.72,6.29-2.71h56.66a43.49,43.49,0,0,0,6.47-.35,26.56,26.56,0,0,1,3.82-.4C427.17,191.39,428.23,192.14,428.23,193.64Z" transform="translate(-13.04 -24.83)"/><path class="cls-2" d="M440.61,192.14H473v81.72h-32.4Z" transform="translate(-13.04 -24.83)"/><path class="cls-2" d="M536.39,249.89l5.66.23q12.32,0,20.32-7.39t8.51-19.29q.71-18.25-19.31-24.66-7.49-2.43-19.5-2.43h-5.33v77.51H494.35V192.14h24.32q19.7,0,23.76.52c2.71.34,5.53.78,8.48,1.32a36.79,36.79,0,0,1,18.19,10,24.31,24.31,0,0,1,6.93,17.9q-.39,13.11-8.45,21.83T545,254.57a56.3,56.3,0,0,1-6.61.52q-5.72,0-5.71-2.83a2,2,0,0,1,1-1.7A4.88,4.88,0,0,1,536.39,249.89Z" transform="translate(-13.04 -24.83)"/><path class="cls-4" d="M23.93,268.36a23.73,23.73,0,0,1-3.84-2.42,3.53,3.53,0,0,1-1.62-2.72c0-1.84.87-2.77,2.6-2.77a6.21,6.21,0,0,1,3.81,1.74,25.24,25.24,0,0,0,4.7,3,36,36,0,0,0,5.66,2.22,41.75,41.75,0,0,0,19.85,1.27A17.8,17.8,0,0,0,59.94,267q4.2-2.37,4.2-6.07,0-3.41-3.62-6.87a89.32,89.32,0,0,0-8.64-7L41,239.26q-16.34-11.44-19.25-20.91a24.77,24.77,0,0,1-1-7.34,17.33,17.33,0,0,1,2-8,19.77,19.77,0,0,1,5.94-6.87q8.44-6.4,23-6.41a41.49,41.49,0,0,1,13.33,2,33.64,33.64,0,0,1,8.07,3.55c1.44,1,2.16,2,2.16,2.83,0,1.78-.8,2.66-2.41,2.66a4.9,4.9,0,0,1-3-1.27,18.75,18.75,0,0,0-3.52-2.22,29.14,29.14,0,0,0-4.42-1.71A35.9,35.9,0,0,0,51.43,194Q42,194,42,199.64A6.62,6.62,0,0,0,43.68,204q3.06,3.53,11.91,10.08a182,182,0,0,1,14.23,11.47A58.16,58.16,0,0,1,78,234.41a21.71,21.71,0,0,1,4.45,12.85,23.09,23.09,0,0,1-2.57,11.31,24.45,24.45,0,0,1-7.21,8q-9.78,7.05-24.27,7.05T23.93,268.36Z" transform="translate(-13.04 -24.83)"/><path class="cls-4" d="M98.43,190.8h32.39v81.72H98.43Z" transform="translate(-13.04 -24.83)"/><path class="cls-4" d="M194.21,248.55l5.65.24q12.33,0,20.33-7.4t8.51-19.29q.69-18.24-19.31-24.66-7.5-2.43-19.5-2.42h-5.33v77.5h-32.4V190.8h24.33q19.69,0,23.75.52t8.48,1.33a36.64,36.64,0,0,1,18.2,10,24.35,24.35,0,0,1,6.92,17.9q-.37,13.11-8.44,21.83t-22.62,10.86a56,56,0,0,1-6.6.52q-5.72,0-5.72-2.83a2,2,0,0,1,1-1.7A5,5,0,0,1,194.21,248.55Z" transform="translate(-13.04 -24.83)"/><path class="cls-4" d="M433.66,191.77c0,1.77-2.06,2.66-6.16,2.66H412.76V272H380.24V194.43h-9.53a37,37,0,0,0-6.73.4,20.82,20.82,0,0,1-3.49.46q-3.24,0-3.24-2.31,0-2.72,6.29-2.71h56.65a43.74,43.74,0,0,0,6.48-.35,26.32,26.32,0,0,1,3.81-.4Q433.66,189.52,433.66,191.77Z" transform="translate(-13.04 -24.83)"/><path class="cls-4" d="M446,190.27h32.39V272H446Z" transform="translate(-13.04 -24.83)"/><path class="cls-4" d="M541.82,248l5.65.24q12.33,0,20.33-7.4t8.51-19.29Q577,203.33,557,196.91q-7.5-2.43-19.5-2.42h-5.33V272h-32.4V190.27H524.1q19.68,0,23.75.52t8.48,1.33a36.64,36.64,0,0,1,18.2,10,24.35,24.35,0,0,1,6.92,17.9q-.37,13.13-8.45,21.84T550.39,252.7a56,56,0,0,1-6.6.52q-5.71,0-5.72-2.83a2,2,0,0,1,1-1.7A5,5,0,0,1,541.82,248Z" transform="translate(-13.04 -24.83)"/><path class="cls-5" d="M55,305.28V357.8h229" transform="translate(-13.04 -24.83)"/><path class="cls-5" d="M308.9,357.8H538V305.28" transform="translate(-13.04 -24.83)"/><path class="cls-5" d="M55,166.48v-122H538v122" transform="translate(-13.04 -24.83)"/><path class="cls-6" d="M41.64,166V33.26l511.2-3.4V166" transform="translate(-13.04 -24.83)"/><path class="cls-6" d="M41.64,305.28v66.61h511.2V305.28" transform="translate(-13.04 -24.83)"/></svg>