<svg id="Layer_1" data-name="Layer 1" xmlns="http://www.w3.org/2000/svg" viewBox="0 0 62.05 62.05"><defs><style>.cls-1{fill:none;stroke:#707071;stroke-width:0.2px;}.cls-2{fill:#6263ac;}.cls-3{fill:#fff;}</style></defs><path id="Path_9" data-name="Path 9" class="cls-1" d="M54.24,111" transform="translate(-25.26 -28.76)"/><g id="Ellipse_17" data-name="Ellipse 17"><circle class="cls-2" cx="31.02" cy="31.02" r="31.02"/><circle class="cls-1" cx="31.02" cy="31.02" r="30.92"/></g><path id="Icon_awesome-twitter" data-name="Icon awesome-twitter" class="cls-3" d="M72.06,51.7c0,.35,0,.71,0,1.06,0,10.76-8.19,23.15-23.16,23.15a22.91,22.91,0,0,1-12.5-3.65A16.79,16.79,0,0,0,48.5,68.88a8.15,8.15,0,0,1-7.61-5.64,11.43,11.43,0,0,0,1.54.13,8.63,8.63,0,0,0,2.15-.28,8.13,8.13,0,0,1-6.53-8V55a8.14,8.14,0,0,0,3.68,1,8.15,8.15,0,0,1-2.52-10.89A23.14,23.14,0,0,0,56,53.67a9.07,9.07,0,0,1-.2-1.87,8.15,8.15,0,0,1,14.08-5.57,15.93,15.93,0,0,0,5.16-2,8.06,8.06,0,0,1-3.57,4.48,16.23,16.23,0,0,0,4.68-1.26,17.18,17.18,0,0,1-4.08,4.21Z" transform="translate(-25.26 -28.76)"/></svg>